# xmcd CD database file
# 
# 
# Track frame offsets:
#       182
#       22640
#       34552
#       48942
#       66972
#       80275
#       94360
#       106935
#       121562
#       138740
#       152802
#       169505
#       183030
#       199842
#       219242
#       231167
# 
# Disc length: 3223 seconds
# 
# Revision: 0
# Processed by: cddbd v1.4PL0 Copyright (c) Steve Scherf et al.
# 
# Submitted via: MBTA4WIN 2.00-s/32 on 2002-03-25
# 
DISCID=c20c9510
DTITLE=Various Artist - TRUCK 'N' COUNTRY
DYEAR=1991
DGENRE=
TTITLE0=Gunter Gabriel - Dosenbier und Countrymusic
TTITLE1=Gaby Kent - Wer Liebe sucht
TTITLE2=Tom Astor - Ich hör' so gern Cajun-Music
TTITLE3=Nancy Wood - König der Nacht
TTITLE4=TRUCK STOP - Arizona, Arizona
TTITLE5=Volker Lechtenbrink - Hilf mir durch die Nacht
TTITLE6=Jonny Hill - 500 Meilen von zu Haus
TTITLE7=Tennessee - Wir sind 'ne kleine Countryband
TTITLE8=Freddy Quinn - Gib mir ein zuhaus
TTITLE9=Tom Astor - Verdammt, mein Sohn hat dein Gesicht
TTITLE10=Linda Bergen - In Virginia fällt der Regen
TTITLE11=WESTERN UNION - Frei wie ein Adler
TTITLE12=Volker Lechtenbrink - Der Spieler
TTITLE13=Nancy Wood - Er nahm ein and'res Mädchen
TTITLE14=Peter Held - Die Freiheit der Berge
TTITLE15=Hill - Adios Amigo
EXTD="Die schönsten deutschen Countrysongs"
EXTT0=
EXTT1=
EXTT2=
EXTT3=
EXTT4=
EXTT5=
EXTT6=
EXTT7=
EXTT8=
EXTT9=
EXTT10=
EXTT11=
EXTT12=
EXTT13=
EXTT14=
EXTT15=
PLAYORDER=
